<svg width="40" height="40" viewBox="0 0 40 40" fill="none" xmlns="http://www.w3.org/2000/svg">
<g clip-path="url(#clip0_638_40183)">
<path fill-rule="evenodd" clip-rule="evenodd" d="M30.3216 8.28148C30.6952 7.90716 31.302 7.90603 31.6769 8.27895C32.0519 8.65188 32.053 9.25763 31.6795 9.63195L21.3524 19.9798L31.7197 30.368C32.0932 30.7424 32.0921 31.3481 31.7171 31.721C31.3422 32.094 30.7354 32.0928 30.3618 31.7185L19.9996 21.3354L9.63728 31.7185C9.26372 32.0928 8.65692 32.094 8.28196 31.721C7.907 31.3481 7.90587 30.7424 8.27943 30.368L18.6468 19.9798L8.31965 9.63195C7.94609 9.25763 7.94722 8.65188 8.32218 8.27895C8.69714 7.90603 9.30394 7.90716 9.6775 8.28148L19.9996 18.6243L30.3216 8.28148Z" fill="black"/>
</g>
<defs>
<clipPath id="clip0_638_40183">
<rect width="40" height="40" fill="white"/>
</clipPath>
</defs>
</svg>
