{
  "accessors": [
    {
      "bufferView": 2,
      "componentType": 5126,
      "count": 114,
      "max": [
        369.74456787109375,
        413.2957763671875,
        20.13829803466797
      ],
      "min": [
        -321.33563232421875,
        3.7448132038116455,
        -33.70117950439453
      ],
      "type": "VEC3"
    },
    {
      "bufferView": 2,
      "byteOffset": 1368,
      "componentType": 5126,
      "count": 114,
      "max": [
        7.757191866630819e-08,
        1.3692005040866206e-07,
        1.0
      ],
      "min": [
        -7.757191866630819e-08,
        -9.621449192920295e-10,
        1.0
      ],
      "type": "VEC3"
    },
    {
      "bufferView": 1,
      "componentType": 5126,
      "count": 114,
      "max": [
        0.24204882979393005,
        0.487701416015625
      ],
      "min": [
        0.018429962918162346,
        0.023115336894989014
      ],
      "type": "VEC2"
    },
    {
      "bufferView": 0,
      "componentType": 5125,
      "count": 174,
      "type": "SCALAR"
    },
    {
      "bufferView": 2,
      "byteOffset": 2736,
      "componentType": 5126,
      "count": 7221,
      "max": [
        542.7572631835938,
        919.6603393554688,
        394.33740234375
      ],
      "min": [
        -356.2914733886719,
        -1.0645200063663651e-06,
        -440.34136962890625
      ],
      "type": "VEC3"
    },
    {
      "bufferView": 2,
      "byteOffset": 89388,
      "componentType": 5126,
      "count": 7221,
      "max": [
        1.0,
        1.0,
        1.0
      ],
      "min": [
        -1.0,
        -1.0,
        -1.0
      ],
      "type": "VEC3"
    },
    {
      "bufferView": 1,
      "byteOffset": 912,
      "componentType": 5126,
      "count": 7221,
      "max": [
        0.8963323831558228,
        0.9971715211868286
      ],
      "min": [
        0.004095092415809631,
        0.017038680613040924
      ],
      "type": "VEC2"
    },
    {
      "bufferView": 0,
      "byteOffset": 696,
      "componentType": 5125,
      "count": 17211,
      "type": "SCALAR"
    }
  ],
  "asset": {
    "extras": {
      "author": "Vigneshwar (https://sketchfab.com/rikki23)",
      "license": "CC-BY-NC-4.0 (http://creativecommons.org/licenses/by-nc/4.0/)",
      "source": "https://sketchfab.com/3d-models/low-poly-flat-for-sale-building-9b2e40dff58b4c61bbf7cadb2734547f",
      "title": "Low Poly Flat For Sale_Building"
    },
    "generator": "Sketchfab-14.18.0",
    "version": "2.0"
  },
  "bufferViews": [
    {
      "buffer": 0,
      "byteLength": 69540,
      "name": "floatBufferViews",
      "target": 34963
    },
    {
      "buffer": 0,
      "byteLength": 58680,
      "byteOffset": 69540,
      "byteStride": 8,
      "name": "floatBufferViews",
      "target": 34962
    },
    {
      "buffer": 0,
      "byteLength": 176040,
      "byteOffset": 128220,
      "byteStride": 12,
      "name": "floatBufferViews",
      "target": 34962
    }
  ],
  "buffers": [
    {
      "byteLength": 304260,
      "uri": "building.bin"
    }
  ],
  "extensionsRequired": [
    "KHR_materials_pbrSpecularGlossiness"
  ],
  "extensionsUsed": [
    "KHR_materials_pbrSpecularGlossiness"
  ],
  "images": [
    {
      "uri": "texturesBuilding/Flat_For_sale_textue_diffuse.png"
    }
  ],
  "materials": [
    {
      "alphaMode": "BLEND",
      "doubleSided": true,
      "extensions": {
        "KHR_materials_pbrSpecularGlossiness": {
          "diffuseFactor": [
            0.060059,
            0.551,
            0.551,
            0.1630481159561629
          ],
          "glossinessFactor": 0.10573712634405641,
          "specularFactor": [
            0.0,
            0.0,
            0.0
          ]
        }
      },
      "name": "Flat_For_sale_textue_glass"
    },
    {
      "doubleSided": true,
      "extensions": {
        "KHR_materials_pbrSpecularGlossiness": {
          "diffuseFactor": [
            1.0,
            1.0,
            1.0,
            1.0
          ],
          "diffuseTexture": {
            "index": 0
          },
          "glossinessFactor": 0.10573712634405641,
          "specularFactor": [
            0.0,
            0.0,
            0.0
          ]
        }
      },
      "name": "Flat_For_sale_textue"
    }
  ],
  "meshes": [
    {
      "name": "Flat_For_sale_Building_Flat_For_sale_textue_glass_0",
      "primitives": [
        {
          "attributes": {
            "NORMAL": 1,
            "POSITION": 0,
            "TEXCOORD_0": 2
          },
          "indices": 3,
          "material": 0,
          "mode": 4
        }
      ]
    },
    {
      "name": "Flat_For_sale_Building_Flat_For_sale_textue_0",
      "primitives": [
        {
          "attributes": {
            "NORMAL": 5,
            "POSITION": 4,
            "TEXCOORD_0": 6
          },
          "indices": 7,
          "material": 1,
          "mode": 4
        }
      ]
    }
  ],
  "nodes": [
    {
      "children": [
        1
      ],
      "matrix": [
        1.0,
        0.0,
        0.0,
        0.0,
        0.0,
        2.220446049250313e-16,
        -1.0,
        0.0,
        0.0,
        1.0,
        2.220446049250313e-16,
        0.0,
        0.0,
        0.0,
        0.0,
        1.0
      ],
      "name": "Sketchfab_model"
    },
    {
      "children": [
        2
      ],
      "matrix": [
        0.009999999776482582,
        0.0,
        0.0,
        0.0,
        0.0,
        0.0,
        0.009999999776482582,
        0.0,
        0.0,
        -0.009999999776482582,
        0.0,
        0.0,
        0.0,
        0.0,
        0.0,
        1.0
      ],
      "name": "7b72d09c5f894ca58905dbd30c1bdb64.fbx"
    },
    {
      "children": [
        3
      ],
      "name": "RootNode"
    },
    {
      "children": [
        4,
        5
      ],
      "matrix": [
        1.0,
        0.0,
        0.0,
        0.0,
        0.0,
        1.0,
        0.0,
        0.0,
        0.0,
        0.0,
        1.0,
        0.0,
        -93.23289489746094,
        0.0,
        23.001983642578125,
        1.0
      ],
      "name": "Flat_For_sale_Building"
    },
    {
      "mesh": 0,
      "name": "Flat_For_sale_Building_Flat_For_sale_textue_glass_0"
    },
    {
      "mesh": 1,
      "name": "Flat_For_sale_Building_Flat_For_sale_textue_0"
    }
  ],
  "samplers": [
    {
      "magFilter": 9729,
      "minFilter": 9987,
      "wrapS": 10497,
      "wrapT": 10497
    }
  ],
  "scene": 0,
  "scenes": [
    {
      "name": "Sketchfab_Scene",
      "nodes": [
        0
      ]
    }
  ],
  "textures": [
    {
      "sampler": 0,
      "source": 0
    }
  ]
}
